<?xml version="1.0" encoding="UTF-8"?>
<!DOCTYPE svg  PUBLIC '-//W3C//DTD SVG 1.1//EN'  'http://www.w3.org/Graphics/SVG/1.1/DTD/svg11.dtd'>
<svg enable-background="new 0 0 128 128" version="1.1" viewBox="0 0 128 128" xml:space="preserve" xmlns="http://www.w3.org/2000/svg">
<g fill="#fff">
	<polygon points="25 92 61 118.5 61 9.5 25 36"/>
	<rect x="1" y="36" width="17" height="56"/>
	<path d="m68.923 48.729c-1.171 1.172-1.171 3.071 1e-3 4.243 2.946 2.946 4.569 6.862 4.569 11.028s-1.623 8.083-4.569 11.03c-1.172 1.171-1.172 3.071 0 4.242 0.586 0.586 1.354 0.879 2.121 0.879s1.535-0.293 2.121-0.879c4.08-4.08 6.327-9.504 6.327-15.272 0-5.769-2.247-11.192-6.327-15.271-1.172-1.171-3.071-1.172-4.243 0z"/>
	<path d="m89.245 32.653c-1.171-1.172-3.069-1.173-4.242-2e-3 -1.172 1.171-1.173 3.07-2e-3 4.243 7.237 7.246 11.224 16.872 11.224 27.106s-3.986 19.86-11.224 27.105c-1.171 1.172-1.17 3.071 2e-3 4.242 0.586 0.586 1.353 0.878 2.12 0.878 0.769 0 1.536-0.293 2.122-0.88 8.37-8.377 12.979-19.509 12.979-31.345 1e-3 -11.835-4.609-22.968-12.979-31.347z"/>
	<path d="m105.31 16.582c-1.172-1.171-3.072-1.171-4.242 0-1.172 1.171-1.172 3.071 0 4.243 11.533 11.532 17.884 26.865 17.884 43.175 0 16.307-6.352 31.641-17.885 43.176-1.172 1.172-1.172 3.071 0 4.242 0.586 0.586 1.354 0.879 2.121 0.879s1.536-0.293 2.121-0.879c12.667-12.669 19.643-29.509 19.643-47.418 0-17.913-6.976-34.753-19.642-47.418z"/>
</g>
</svg>
