<?xml version="1.0" encoding="UTF-8"?>
<!DOCTYPE svg  PUBLIC '-//W3C//DTD SVG 1.1//EN'  'http://www.w3.org/Graphics/SVG/1.1/DTD/svg11.dtd' [
	<!ENTITY ns_extend "http://ns.adobe.com/Extensibility/1.0/">
	<!ENTITY ns_ai "http://ns.adobe.com/AdobeIllustrator/10.0/">
	<!ENTITY ns_graphs "http://ns.adobe.com/Graphs/1.0/">
	<!ENTITY ns_vars "http://ns.adobe.com/Variables/1.0/">
	<!ENTITY ns_imrep "http://ns.adobe.com/ImageReplacement/1.0/">
	<!ENTITY ns_sfw "http://ns.adobe.com/SaveForWeb/1.0/">
	<!ENTITY ns_custom "http://ns.adobe.com/GenericCustomNamespace/1.0/">
	<!ENTITY ns_adobe_xpath "http://ns.adobe.com/XPath/1.0/">
]>
<svg enable-background="new 95 56 200 200" version="1.1" viewBox="95 56 200 200" xml:space="preserve" xmlns="http://www.w3.org/2000/svg">
<path fill="#fff" d="m283.8 154.16h-26.635c-0.443-16.496-7.057-31.941-18.771-43.656-11.717-11.716-27.164-18.331-43.662-18.772v-26.635c0-0.967-0.784-1.751-1.751-1.751-0.968 0-1.752 0.784-1.752 1.751v26.641c-34.028 0.913-61.525 28.402-62.451 62.427h-26.646c-0.967 0-1.751 0.784-1.751 1.751 0 0.968 0.784 1.752 1.751 1.752h26.643c0.436 16.507 7.051 31.964 18.772 43.687 11.721 11.721 27.177 18.334 43.681 18.771v26.639c0 0.967 0.784 1.751 1.752 1.751 0.967 0 1.751-0.784 1.751-1.751v-26.639c16.498-0.441 31.945-7.056 43.662-18.771 11.721-11.723 18.336-27.18 18.771-43.687h26.635c0.967 0 1.751-0.784 1.751-1.752 0.02-0.97-0.77-1.75-1.73-1.75zm-47.89-41.18c11.054 11.054 17.304 25.62 17.746 41.18h-27.747c-0.426-8.149-3.801-15.751-9.614-21.564-5.815-5.814-13.419-9.189-21.569-9.615v-27.745c15.56 0.441 30.13 6.695 41.18 17.745zm-44.68 41.18h-27.692c0.423-7.213 3.429-13.936 8.581-19.087 5.156-5.158 11.889-8.164 19.111-8.583v27.67zm0 3.5v27.699c-7.223-0.418-13.955-3.425-19.111-8.582-5.16-5.159-8.166-11.894-8.584-19.117h27.69zm3.5 0h27.676c-0.869 14.872-12.807 26.817-27.676 27.698v-27.7zm0-3.5v-27.668c7.215 0.422 13.939 3.428 19.092 8.581 5.152 5.152 8.158 11.875 8.581 19.087h-27.67zm-44.71-41.18c11.06-11.059 25.636-17.31 41.204-17.747v27.745c-16.801 0.878-30.313 14.383-31.205 31.182h-27.746c0.45-15.56 6.7-30.12 17.75-41.18zm0 85.89c-11.061-11.061-17.312-25.638-17.747-41.209h27.745c0.42 8.16 3.796 15.772 9.617 21.594 5.819 5.819 13.431 9.195 21.589 9.617v27.745c-15.57-0.44-30.15-6.69-41.21-17.75zm44.71 17.75v-27.743c8.15-0.427 15.754-3.801 21.569-9.616 5.821-5.821 9.196-13.434 9.617-21.594h27.743c-0.91 32.09-26.83 58.03-58.93 58.95z"/>
</svg>
